Jump_normalized_Precision Landing14_filtered_grf
version=1
nRows=15
nColumns=37
inDegrees=yes
endheader
time		1_ground_force_vx		1_ground_force_vy		1_ground_force_vz		1_ground_force_px		1_ground_force_py		1_ground_force_pz		1_ground_torque_x		1_ground_torque_y		1_ground_torque_z		2_ground_force_vx		2_ground_force_vy		2_ground_force_vz		2_ground_force_px		2_ground_force_py		2_ground_force_pz		2_ground_torque_x		2_ground_torque_y		2_ground_torque_z		3_ground_force_vx		3_ground_force_vy		3_ground_force_vz		3_ground_force_px		3_ground_force_py		3_ground_force_pz		3_ground_torque_x		3_ground_torque_y		3_ground_torque_z		4_ground_force_vx		4_ground_force_vy		4_ground_force_vz		4_ground_force_px		4_ground_force_py		4_ground_force_pz		4_ground_torque_x		4_ground_torque_y		4_ground_torque_z		
0.313667		-0.000000		-0.000000		0.000000		0.107751		0.000000		0.289496		-0.000000		0.000000		0.000000		0.000000		-0.000000		0.000000		-0.189234		0.000000		0.278759		0.000000		-0.000000		-0.000000		-22.989723		427.931312		-83.407623		0.352060		1.254587		1.894571		1.211364		-22.548360		4.394876		-3.844598		300.998312		-59.239558		-0.289323		1.264232		1.904501		4.602789		26.859648		37.688963		
0.317404		-0.000000		-0.000000		-0.000000		0.107751		0.000000		0.289496		-0.000000		-0.000000		0.000000		-0.000000		-0.000000		-0.000000		-0.189234		0.000000		0.278759		-0.000000		0.000000		-0.000000		-21.969778		417.402820		-87.592177		0.352017		1.254582		1.894614		1.157069		-21.983102		4.613163		-4.608815		283.159231		-57.460404		-0.289325		1.264263		1.904478		4.407823		25.373804		35.359066		
0.321141		0.000000		-0.000000		-0.000000		0.107751		0.000000		0.289496		-0.000000		-0.000000		0.000000		-0.000000		-0.000000		-0.000000		-0.189234		0.000000		0.278759		-0.000000		0.000000		-0.000000		-20.822374		405.290474		-91.305344		0.352018		1.254600		1.894625		1.094257		-21.298799		4.798269		-5.456791		263.300163		-54.908793		-0.289332		1.264293		1.904433		4.170563		23.626886		32.792828		
0.324879		0.000000		-0.000000		-0.000000		0.107751		0.000000		0.289496		-0.000000		-0.000000		0.000000		-0.000000		-0.000000		-0.000000		-0.189234		0.000000		0.278759		-0.000000		0.000000		-0.000000		-19.498519		391.636049		-94.363558		0.352050		1.254632		1.894608		1.020571		-20.498605		4.939074		-6.592878		241.720708		-51.459603		-0.289342		1.264323		1.904368		-0.394569		14.466662		-3.079786		
0.328616		0.000000		0.000000		-0.000000		0.107751		0.000000		0.289496		-0.000000		-0.000000		-0.000000		-0.000000		0.000000		-0.000000		-0.189234		0.000000		0.278759		-0.000000		0.000000		0.000000		-18.012609		376.507437		-96.596299		0.352101		1.254672		1.894565		0.937507		-19.596170		5.027564		-8.226797		218.980436		-47.018827		-0.289352		1.264354		1.904282		-0.483024		12.857398		-2.760702		
0.332354		0.000000		0.000000		0.000000		0.107751		0.000000		0.289496		0.000000		0.000000		-0.000000		-0.000000		0.000000		0.000000		-0.189234		0.000000		0.278759		0.000000		-0.000000		0.000000		-16.444746		360.017784		-97.895082		0.352150		1.254719		1.894511		0.850170		-18.612387		5.061024		-10.457981		195.693229		-41.546766		-0.289358		1.264388		1.904183		-0.599821		11.224441		-2.383017		
0.336091		-0.000000		0.000000		0.000000		0.107751		0.000000		0.289496		0.000000		0.000000		-0.000000		0.000000		0.000000		0.000000		-0.189234		0.000000		0.278759		0.000000		-0.000000		0.000000		-14.940323		342.291319		-98.300735		0.352190		1.254771		1.894454		0.766714		-17.565842		5.044631		-13.192251		172.229515		-35.171607		-0.289355		1.264429		1.904073		-0.735304		9.599946		-1.960449		
0.339828		-0.000000		0.000000		0.000000		0.107751		0.000000		0.289496		0.000000		0.000000		-0.000000		0.000000		0.000000		0.000000		-0.189234		0.000000		0.278759		0.000000		-0.000000		0.000000		-13.619872		323.414193		-97.932521		0.352218		1.254828		1.894398		0.693427		-16.465943		4.986016		-16.119433		148.518409		-28.221397		-0.289341		1.264476		1.903958		-0.866368		7.982843		-1.516919		
0.343566		-0.000000		0.000000		0.000000		0.107751		0.000000		0.289496		0.000000		0.000000		-0.000000		0.000000		0.000000		0.000000		-0.189234		0.000000		0.278759		0.000000		-0.000000		0.000000		-12.497777		303.422906		-96.839588		0.352229		1.254881		1.894341		0.630806		-15.314781		4.887818		-18.799326		124.116121		-21.236630		-0.289316		1.264527		1.903836		-0.961747		6.349859		-1.086495		
0.347303		-0.000000		-0.000000		-0.000000		0.107751		0.000000		0.289496		-0.000000		0.000000		0.000000		0.000000		-0.000000		0.000000		-0.189234		0.000000		0.278759		0.000000		-0.000000		-0.000000		-11.457835		282.313950		-94.937226		0.352223		1.254918		1.894279		0.572780		-14.112940		4.745923		-20.794021		98.653150		-14.852289		-0.289287		1.264576		1.903704		-0.988327		4.689543		-0.706050		
0.351040		-0.000000		-0.000000		-0.000000		0.107751		0.000000		0.289496		-0.000000		-0.000000		0.000000		-0.000000		-0.000000		-0.000000		-0.189234		0.000000		0.278759		-0.000000		0.000000		-0.000000		-10.294131		260.155133		-92.011914		0.352204		1.254934		1.894199		0.509146		-12.867202		4.550881		-21.827445		72.529371		-9.615134		-0.289262		1.264616		1.903555		-0.915468		3.042234		-0.403315		
0.354778		0.000000		-0.000000		-0.000000		0.107751		0.000000		0.289496		-0.000000		-0.000000		0.000000		-0.000000		-0.000000		-0.000000		-0.189234		0.000000		0.278759		-0.000000		0.000000		-0.000000		-8.802740		237.132234		-87.836411		0.352180		1.254938		1.894096		0.430288		-11.591228		4.293509		-21.871763		47.355604		-5.837669		-0.289248		1.264644		1.903390		-0.705341		1.528480		-0.188426		
0.358515		0.000000		-0.000000		-0.000000		0.107751		0.000000		0.289496		-0.000000		-0.000000		0.000000		-0.000000		-0.000000		-0.000000		-0.189234		0.000000		0.278759		-0.000000		0.000000		-0.000000		-6.840510		213.573022		-82.291291		0.352167		1.254946		1.893961		0.330030		-10.304103		3.970247		-21.172865		25.633024		-3.475726		-0.289254		1.264659		1.903207		-0.315242		0.381851		-0.051767		
0.362253		0.000000		0.000000		-0.000000		0.107751		0.000000		0.289496		0.000000		-0.000000		-0.000000		-0.000000		0.000000		-0.000000		-0.189234		0.000000		0.278759		-0.000000		0.000000		0.000000		-4.352302		189.848543		-75.353506		0.352166		1.254968		1.893803		0.206915		-9.025368		3.582287		-20.129561		9.705963		-2.252237		-0.289277		1.264668		1.903017		0.081956		-0.038978		0.009140		
0.365990		0.000000		0.000000		0.000000		0.107751		0.000000		0.289496		0.000000		0.000000		-0.000000		0.000000		0.000000		0.000000		-0.189234		0.000000		0.278759		0.000000		-0.000000		0.000000		-1.416073		166.227839		-67.155341		0.352165		1.255005		1.893629		1.645545		-17.093614		-19.976908		-19.132075		0.432413		-1.801293		-0.289310		1.264676		1.902831		0.020143		-0.000479		0.001897		
